Coordinates
version=1
nRows=8
nColumns=63
inDegrees=yes

Units are S.I. units (second, meters, Newtons, ...)
If the header above contains a line with 'inDegrees', this indicates whether rotational values are in degrees (yes) or radians (no).

endheader
time	pelvis_tilt	pelvis_list	pelvis_rotation	pelvis_tx	pelvis_ty	pelvis_tz	hip_flexion_r	hip_adduction_r	hip_rotation_r	knee_angle_r	knee_angle_r_beta	ankle_angle_r	subtalar_angle_r	mtp_angle_r	hip_flexion_l	hip_adduction_l	hip_rotation_l	knee_angle_l	knee_angle_l_beta	ankle_angle_l	subtalar_angle_l	mtp_angle_l	L5_S1_Flex_Ext	L5_S1_Lat_Bending	L5_S1_axial_rotation	L4_L5_Flex_Ext	L4_L5_Lat_Bending	L4_L5_axial_rotation	L3_L4_Flex_Ext	L3_L4_Lat_Bending	L3_L4_axial_rotation	L2_L3_Flex_Ext	L2_L3_Lat_Bending	L2_L3_axial_rotation	L1_L2_Flex_Ext	L1_L2_Lat_Bending	L1_L2_axial_rotation	L1_T12_Flex_Ext	L1_T12_Lat_Bending	L1_T12_axial_rotation	Abs_r3	Abs_r2	Abs_r1	Abs_t1	Abs_t2	neck_flexion	neck_bending	neck_rotation	arm_flex_r	arm_add_r	arm_rot_r	elbow_flex_r	pro_sup_r	wrist_flex_r	wrist_dev_r	arm_flex_l	arm_add_l	arm_rot_l	elbow_flex_l	pro_sup_l	wrist_flex_l	wrist_dev_l
19.576271	0.364290	-5.059801	84.120352	0.167561	0.955406	0.534768	5.913725	1.894574	1.578095	18.664585	0.325758	25.396881	-3.852556	0.000000	2.471734	-1.796773	-11.294745	11.196521	0.195416	28.277690	11.030374	0.000000	-0.041811	-0.171110	0.965671	-0.077647	-0.227576	1.026025	-0.068691	-0.416036	1.026025	-0.047786	-0.416036	0.844962	-0.038826	-0.348927	0.784607	-0.023891	-0.265049	0.724253	-0.298651	-1.935625	5.370771	0.000000	0.000000	11.413322	1.206872	-4.402080	-10.792981	-10.069411	9.838461	37.217720	86.558314	4.386572	4.057933	1.601673	-13.035552	28.742233	35.435538	86.688930	-12.888064	5.301567
19.593220	0.289619	-5.192301	83.652008	0.167970	0.955160	0.535400	6.249880	1.877601	2.186664	18.893774	0.329759	25.491273	-3.953002	0.000000	2.666958	-1.761281	-11.954230	11.244182	0.196248	28.493987	11.387856	0.000000	-0.036505	-0.177862	1.048950	-0.067794	-0.236557	1.114510	-0.059974	-0.432454	1.114510	-0.041722	-0.432454	0.917831	-0.033899	-0.362697	0.852272	-0.020859	-0.275509	0.786713	-0.260753	-2.012013	5.833947	0.000000	0.000000	11.494224	1.133652	-4.523917	-10.891013	-10.014581	9.703712	37.120796	86.677500	4.277787	3.976439	1.662184	-12.996671	29.200558	34.938534	86.577661	-12.469808	5.943874
19.610169	0.222247	-5.310820	83.178653	0.168339	0.954952	0.535916	6.552751	1.860910	2.751602	19.094092	0.333255	25.610221	-3.952510	0.000000	2.821951	-1.725748	-12.597949	11.259987	0.196524	28.685102	11.692025	0.000000	-0.032356	-0.183239	1.131204	-0.060089	-0.243707	1.201904	-0.053158	-0.445526	1.201904	-0.036980	-0.445526	0.989804	-0.030046	-0.373660	0.919103	-0.018488	-0.283837	0.848403	-0.231118	-2.072831	6.291418	0.000000	0.000000	11.615156	1.084500	-4.633220	-10.992095	-9.999553	9.694957	37.004928	86.811193	4.068624	3.904400	1.700047	-13.008928	29.768416	34.503610	86.463455	-11.994681	6.787068
19.627119	0.150597	-5.428667	82.743340	0.168608	0.954763	0.536304	6.835012	1.833651	3.270262	19.267744	0.336286	25.745535	-3.913648	0.000000	2.960305	-1.678170	-13.169062	11.252919	0.196400	28.838720	11.933653	0.000000	-0.026951	-0.188465	1.194848	-0.050051	-0.250658	1.269526	-0.044278	-0.458233	1.269526	-0.030803	-0.458233	1.045492	-0.025027	-0.384317	0.970814	-0.015400	-0.291932	0.896136	-0.192511	-2.131950	6.645384	0.000000	0.000000	11.791085	1.066668	-4.678028	-11.075064	-9.993545	9.728979	36.863421	86.984569	3.870566	3.949869	1.601973	-13.031380	30.112625	34.183070	86.395694	-11.496750	7.645537
19.644068	0.081497	-5.538311	82.363200	0.168751	0.954611	0.536576	7.084518	1.793673	3.685032	19.408055	0.338734	25.884140	-3.793333	0.000000	3.077112	-1.623257	-13.630424	11.228037	0.195966	28.948655	12.085029	0.000000	-0.021246	-0.192757	1.232991	-0.039455	-0.256367	1.310053	-0.034904	-0.468670	1.310053	-0.024282	-0.468670	1.078867	-0.019729	-0.393070	1.001805	-0.012140	-0.298581	0.924743	-0.151755	-2.180508	6.857524	0.000000	0.000000	12.007206	1.088837	-4.622797	-11.111487	-10.017896	9.909334	36.677579	87.153880	3.634805	4.009879	1.362019	-13.063847	30.247686	33.975467	86.332438	-11.019463	8.387244
19.661017	0.018477	-5.637865	82.052964	0.168752	0.954501	0.536746	7.297261	1.745287	4.004570	19.511955	0.340548	26.022657	-3.628806	0.000000	3.174290	-1.565818	-13.997962	11.192296	0.195342	29.013479	12.174097	0.000000	-0.015362	-0.195686	1.238594	-0.028528	-0.260262	1.316006	-0.025238	-0.475790	1.316006	-0.017557	-0.475790	1.083769	-0.014265	-0.399042	1.006357	-0.008778	-0.303117	0.928945	-0.109727	-2.213637	6.888686	0.000000	0.000000	12.255896	1.149533	-4.438764	-11.079363	-10.076646	10.253057	36.450427	87.303569	3.411366	4.095794	0.966080	-13.097302	30.113810	33.879397	86.289313	-10.549185	8.930761
19.677966	-0.043150	-5.733316	81.837299	0.168570	0.954421	0.536859	7.490586	1.676138	4.183266	19.600736	0.342097	26.166230	-3.403048	0.000000	3.270988	-1.498271	-14.222558	11.159602	0.194772	29.033900	12.173825	0.000000	-0.008729	-0.197858	1.206670	-0.016211	-0.263151	1.282087	-0.014342	-0.481072	1.282087	-0.009977	-0.481072	1.055836	-0.008106	-0.403472	0.980419	-0.004988	-0.306482	0.905002	-0.062354	-2.238211	6.711136	0.000000	0.000000	12.519787	1.219140	-4.149139	-10.963472	-10.179083	10.806125	36.185692	87.400219	3.206400	4.172762	0.430051	-13.129813	29.744525	33.871866	86.267578	-10.188986	9.161271
19.694915	-0.099107	-5.816249	81.697642	0.168270	0.954387	0.536953	7.643631	1.599257	4.261912	19.644233	0.342857	26.298802	-3.158793	0.000000	3.354656	-1.428998	-14.342852	11.124001	0.194150	29.026337	12.129550	0.000000	-0.003675	-0.199501	1.145570	-0.006825	-0.265336	1.217168	-0.006038	-0.485066	1.217168	-0.004200	-0.485066	1.002374	-0.003413	-0.406822	0.930776	-0.002100	-0.309027	0.859177	-0.026251	-2.256794	6.371316	0.000000	0.000000	12.802221	1.300473	-3.779568	-10.771889	-10.308508	11.507661	35.899724	87.431711	3.037134	4.261042	-0.210431	-13.177291	29.191782	33.961206	86.276714	-9.944355	9.090289
